<svg width="36" height="36" viewBox="0 0 36 36" fill="none" xmlns="http://www.w3.org/2000/svg">
<circle cx="18" cy="18" r="17" stroke="white" stroke-width="2"/>
<path fill-rule="evenodd" clip-rule="evenodd" d="M16.5 22.5C13.1863 22.5 10.5 19.8137 10.5 16.5C10.5 13.1863 13.1863 10.5 16.5 10.5C19.8137 10.5 22.5 13.1863 22.5 16.5C22.5 17.8865 22.0297 19.1632 21.2399 20.1792L25.2803 24.2197L24.2196 25.2803L20.1792 21.2399C19.1632 22.0297 17.8865 22.5 16.5 22.5ZM21 16.5C21 18.9853 18.9853 21 16.5 21C14.0147 21 12 18.9853 12 16.5C12 14.0147 14.0147 12 16.5 12C18.9853 12 21 14.0147 21 16.5Z" fill="white"/>
</svg>
