<svg width="32" height="32" viewBox="0 0 32 32" fill="none" xmlns="http://www.w3.org/2000/svg">
<path fill-rule="evenodd" clip-rule="evenodd" d="M13.3337 24C7.44262 24 2.66699 19.2244 2.66699 13.3333C2.66699 7.4423 7.44262 2.66667 13.3337 2.66667C19.2247 2.66667 24.0003 7.4423 24.0003 13.3333C24.0003 15.7983 23.1642 18.0679 21.7601 19.8742L28.9432 27.0572L27.0575 28.9428L19.8745 21.7598C18.0683 23.1639 15.7986 24 13.3337 24ZM21.3337 13.3333C21.3337 17.7516 17.7519 21.3333 13.3337 21.3333C8.91537 21.3333 5.33365 17.7516 5.33365 13.3333C5.33365 8.91506 8.91537 5.33334 13.3337 5.33334C17.7519 5.33334 21.3337 8.91506 21.3337 13.3333Z" fill="white"/>
</svg>
